<svg width="27" height="27" viewBox="0 0 27 27" fill="none" xmlns="http://www.w3.org/2000/svg">
<path d="M23.1292 26.3333L13.5143 16.7194L3.89694 26.3333C3.46945 26.7461 2.89697 26.9745 2.30267 26.9694C1.70837 26.9642 1.14 26.7258 0.719747 26.3056C0.299498 25.8854 0.0611405 25.317 0.0559762 24.7228C0.0508119 24.1286 0.279196 23.5561 0.692079 23.1287L10.3094 13.5126L0.692079 3.8965C0.475594 3.68743 0.302873 3.43738 0.184082 3.16088C0.065291 2.88437 0.00270073 2.58695 8.54714e-05 2.28603C-0.00252979 1.98511 0.0548968 1.6867 0.168864 1.40818C0.282832 1.12965 0.451038 0.876602 0.663857 0.66381C0.876676 0.451017 1.12986 0.282728 1.40842 0.168775C1.68698 0.054821 1.98539 -0.00252938 2.28635 8.55581e-05C2.58731 0.0027005 2.88469 0.0652485 3.16123 0.184025C3.43777 0.302802 3.68785 0.475432 3.89694 0.69189L13.5143 10.3057L23.1292 0.69189C23.3396 0.481324 23.5896 0.314258 23.8646 0.200244C24.1396 0.0862292 24.4343 0.0275103 24.732 0.027405C25.0297 0.0272998 25.3246 0.0858358 25.5997 0.199656C25.8748 0.313476 26.1248 0.480366 26.3354 0.690783C26.546 0.901201 26.713 1.15101 26.8271 1.42599C26.9411 1.70097 26.9999 1.99572 27 2.2934C27.0001 2.59108 26.9415 2.88585 26.8276 3.16091C26.7138 3.43597 26.5469 3.68593 26.3365 3.8965L16.7192 13.5148L26.3365 23.1309C26.7615 23.5562 27.0002 24.1328 27 24.734C26.9998 25.3352 26.7607 25.9117 26.3354 26.3367C25.9101 26.7616 25.3333 27.0002 24.732 27C24.1307 26.9998 23.5542 26.7608 23.1292 26.3355V26.3333Z" fill="white"/>
</svg>
