<svg width="247" height="42" viewBox="0 0 247 42" fill="none" xmlns="http://www.w3.org/2000/svg">
<path d="M22.5837 5.22211C16.6235 5.22211 10.6837 5.22211 4.70305 5.22211C5.37895 3.37875 5.50184 3.27634 7.30424 3.27634C18.2825 3.27634 29.2402 3.27634 40.2185 3.25586C41.2016 3.25586 42.0209 3.48116 42.6763 4.23898C43.5775 5.26307 43.5775 6.32813 42.7173 7.70041C39.5426 12.698 36.3679 17.6955 33.1932 22.6726C29.3836 28.6738 25.5535 34.6544 21.7439 40.6556C21.3957 41.2086 21.0475 41.352 20.4536 41.352C13.9403 41.3315 7.44761 41.3315 0.9344 41.3315C0.627173 41.3315 0.197056 41.393 0.0741651 41.2496C-0.171616 40.9219 0.258501 40.6556 0.422355 40.3894C7.5705 29.1039 14.7596 17.8389 21.9078 6.55342C22.174 6.16427 22.5427 5.83656 22.5837 5.22211Z" fill="#2E5CFF"/>
<path d="M34.5263 23.2878C36.2672 20.5637 37.8853 17.983 39.5238 15.4023C41.019 13.0469 42.4732 10.671 44.0298 8.35658C44.9515 6.9843 45.2178 5.65298 44.419 4.15781C43.5587 2.60119 42.207 1.90481 40.4865 1.90481C33.8504 1.88433 27.1938 1.90481 20.5577 1.90481C16.1951 1.90481 11.8324 1.90481 7.46982 1.90481C7.24452 1.90481 7.01922 1.88433 6.77344 1.86384C7.24452 0.512046 8.00235 0 9.49752 0C26.5998 0.0614454 43.7021 0.0409661 60.8044 0.0409661C64.143 0.0409661 66.6417 2.74456 66.4369 6.06261C66.396 6.79996 66.1297 7.4349 65.7405 8.04935C62.6478 12.924 59.5345 17.7987 56.4623 22.6938C56.196 23.124 55.9298 23.3083 55.4177 23.3083C48.4949 23.2878 41.613 23.2878 34.5263 23.2878Z" fill="url(#paint0_linear_8137_1328)"/>
<path d="M62.2734 42.0072L77.0688 13.5312H91.3575C94.803 13.5312 97.0324 14.342 98.0458 16.0647C99.0592 17.7874 98.7551 20.2196 97.1337 23.4624C95.411 26.7052 93.1815 29.1373 90.4454 30.8601C87.608 32.5828 84.5678 33.3935 81.1223 33.3935H72.5086L68.0497 42.0072H62.2734ZM89.0267 17.8888H80.413L74.738 28.8333H83.3518C84.9732 28.8333 86.4932 28.4279 87.912 27.5159C89.3307 26.6039 90.4454 25.1851 91.4588 23.361C92.3708 21.537 92.6749 20.2196 92.2695 19.3075C91.7628 18.3955 90.7494 17.8888 89.0267 17.8888Z" fill="white"/>
<path d="M101.795 33.2919C99.6673 33.2919 98.3499 32.7853 97.8432 31.6705C97.2352 30.6572 97.5392 29.1371 98.5526 27.2117C99.566 25.2862 100.883 23.7662 102.505 22.7528C104.126 21.7394 106.052 21.1314 108.078 21.1314H122.874L123.38 20.2193C124.191 18.6993 123.786 17.8886 122.266 17.8886H105.849L108.18 13.4297H126.015C128.346 13.4297 129.765 13.9364 130.17 15.0511C130.575 16.0645 130.271 17.5845 129.359 19.51L122.266 33.2919H101.795ZM105.038 28.9344H118.82L120.543 25.6916H106.761C106.254 25.6916 105.849 25.8943 105.342 26.1983C104.937 26.5023 104.633 26.9076 104.329 27.313C104.126 27.8197 104.025 28.225 104.126 28.5291C104.228 28.7317 104.532 28.9344 105.038 28.9344Z" fill="white"/>
<path d="M127.328 42.007L129.659 37.5481H141.313C142.833 37.5481 144.049 36.7374 144.86 35.2174L145.873 33.2919H133.915C131.686 33.2919 130.267 32.6839 129.862 31.5692C129.456 30.4545 129.659 28.9344 130.571 27.2117L137.665 13.4297H143.238L136.449 26.5023C135.638 28.0224 136.043 28.8331 137.563 28.8331H147.9L155.905 13.4297H161.682L150.028 35.9267C149.116 37.7508 147.798 39.1696 146.177 40.2843C144.556 41.399 142.63 42.007 140.401 42.007H127.328Z" fill="white"/>
<path d="M165.642 33.4946C162.197 33.4946 159.967 32.6839 158.954 30.9612C157.941 29.2384 158.245 26.705 159.967 23.4622C161.69 20.118 163.92 17.5845 166.757 15.9631C169.594 14.2404 172.736 13.4297 176.181 13.4297H185.809C188.038 13.4297 189.558 13.9364 190.166 15.0511C190.875 16.0645 190.673 17.5845 189.659 19.6113C187.531 23.6648 184.187 25.6916 179.526 25.6916H164.933C164.224 28.1237 165.237 29.2384 167.973 29.2384H183.579L181.248 33.6973H165.642V33.4946ZM173.851 17.6859C171.216 17.6859 168.986 18.8006 167.264 21.03H181.552C182.059 21.03 182.566 20.8274 182.971 20.5234C183.478 20.2193 183.782 19.814 184.086 19.206C184.694 18.0912 184.39 17.5845 183.275 17.5845H173.851V17.6859Z" fill="white"/>
<path d="M185.195 33.2919L187.323 29.2384L208.807 17.8886H193.91L196.241 13.4297H219.346L217.218 17.4832L195.734 28.8331H211.341L209.01 33.2919H185.195Z" fill="white"/>
<path d="M212.648 42.007L214.979 37.5481H226.633C228.153 37.5481 229.369 36.7374 230.18 35.2174L231.193 33.2919H219.235C217.006 33.2919 215.587 32.6839 215.182 31.5692C214.777 30.4545 214.979 28.9344 215.891 27.2117L222.985 13.4297H228.559L221.769 26.5023C220.958 28.0224 221.364 28.8331 222.884 28.8331H233.22L241.226 13.4297H247.002L235.348 35.8254C234.436 37.6495 233.119 39.0682 231.497 40.1829C229.876 41.2977 227.95 41.9057 225.721 41.9057H212.648V42.007Z" fill="white"/>
<defs>
<linearGradient id="paint0_linear_8137_1328" x1="6.77344" y1="20.3948" x2="20.793" y2="-12.5302" gradientUnits="userSpaceOnUse">
<stop stop-color="#02AAB0"/>
<stop offset="1" stop-color="#00CDAC"/>
</linearGradient>
</defs>
</svg>
