<svg width="55" height="74" viewBox="0 0 55 74" fill="none" xmlns="http://www.w3.org/2000/svg">
<path d="M2.77327 39.5934C1.66525 38.3225 1.79077 36.3956 3.0543 35.2792L13.0824 26.4187C14.38 25.2722 16.3689 25.4264 17.4743 26.7592L50.7955 66.937C52.4579 68.9414 51.0237 71.9749 48.4196 71.9622L32.3055 71.8837C31.4244 71.8794 30.5876 71.4963 30.0085 70.8321L2.77327 39.5934Z" fill="#428AEC"/>
<path d="M51.5486 32.9171C52.6712 34.175 52.568 36.1033 51.3175 37.2343L41.3927 46.2102C40.1085 47.3717 38.1179 47.2406 36.9972 45.9206L3.21298 6.13142C1.52746 4.14631 2.91154 1.02403 5.51565 1.00657L21.6444 0.970946C22.5256 0.965039 23.3668 1.33839 23.9535 1.99584L51.5486 32.9171Z" fill="#01C1AE"/>
</svg>
