<svg width="43" height="47" viewBox="0 0 43 47" fill="none" xmlns="http://www.w3.org/2000/svg">
<path d="M7.9321 13.8623C8.31753 13.1965 9.27897 13.1971 9.66359 13.8634L16.7122 26.0734C17.0972 26.7403 16.6156 27.5738 15.8456 27.5734L1.73322 27.5651C0.963159 27.5647 0.482553 26.7306 0.868362 26.0641L7.9321 13.8623Z" fill="#F3E445"/>
<path d="M37.3624 14.5306C37.5349 14.8381 37.5327 15.2137 37.3566 15.5192L32.3269 24.2448C31.9404 24.9153 30.9716 24.9115 30.5903 24.2381L22.8542 10.5729C22.8511 10.5676 22.8512 10.561 22.8544 10.5557L25.0455 6.91808L22.851 10.5557C22.8435 10.5674 22.8306 10.5745 22.8167 10.5745L8.37231 10.5745C8.02193 10.5745 7.69711 10.3911 7.5161 10.0911L2.34478 1.52053C1.94265 0.854049 2.4226 0.00390625 3.201 0.00390625L29.1759 0.00390625C29.1904 0.00390625 29.1994 0.0195856 29.1922 0.032138L29.1785 0.0559022C29.1774 0.0578886 29.1788 0.0603698 29.1811 0.0603698C29.1821 0.0603698 29.1831 0.0598162 29.1836 0.0589128L29.1908 0.046829C29.2017 0.0285091 29.2284 0.0288448 29.2388 0.0474333L37.3624 14.5306Z" fill="#2E5CFF"/>
<path d="M29.2185 0.00390625C29.2193 0.00390625 29.2198 0.00493295 29.2192 0.00553322C29.2191 0.00558927 29.2191 0.0056521 29.219 0.00572025L29.1874 0.0589128C29.1869 0.0598161 29.1859 0.0603697 29.1848 0.0603697C29.1826 0.0603697 29.1811 0.0578886 29.1823 0.0559023L29.2114 0.00533907C29.2119 0.00445253 29.2129 0.00390625 29.2139 0.00390625L29.2185 0.00390625Z" fill="#765AD9"/>
<path d="M29.2178 0.00552996C29.2185 0.00630189 29.2187 0.00750206 29.2181 0.00844135L29.1874 0.0601395C29.1869 0.0610428 29.1859 0.0615964 29.1848 0.0615964C29.1826 0.0615964 29.1811 0.0591155 29.1823 0.0571293L29.2122 0.00513282L29.213 0.00403312C29.2141 0.00239066 29.2166 0.0027268 29.2172 0.00460019C29.2173 0.00495045 29.2175 0.00526913 29.2178 0.00552996Z" fill="#765AD9"/>
<path d="M42.1306 45.3872C42.5159 46.0539 42.0348 46.8877 41.2648 46.8877L29.273 46.8877C28.9153 46.8877 28.5848 46.6966 28.4063 46.3865L18.4358 29.064C18.0532 28.3992 18.5305 27.569 19.2975 27.5651L31.2118 27.5049C31.5707 27.5031 31.903 27.6937 32.0826 28.0044L42.1306 45.3872Z" fill="#31C5A0"/>
<path d="M25.0461 6.91992L22.8554 10.5568C22.8552 10.5573 22.8547 10.5575 22.8542 10.5575C22.853 10.5575 22.8523 10.5563 22.8529 10.5553L25.0461 6.91992Z" fill="#2E5CFF"/>
</svg>
