<svg width="69" height="39" viewBox="0 0 69 39" fill="none" xmlns="http://www.w3.org/2000/svg">
<rect x="14.1797" y="17.7285" width="19.5" height="3.54545" rx="1.77273" fill="#2E5CFF"/>
<rect x="35.4531" y="17.7285" width="19.5" height="3.54545" rx="1.77273" fill="url(#paint0_linear_8137_1345)"/>
<rect x="8.86719" y="8.86328" width="21.2727" height="3.54545" rx="1.77273" fill="#2E5CFF"/>
<rect width="21.2727" height="3.54545" rx="1.77273" fill="#2E5CFF"/>
<rect x="8.86719" y="26.5918" width="21.2727" height="3.54545" rx="1.77273" fill="#2E5CFF"/>
<rect y="35.4551" width="21.2727" height="3.54545" rx="1.77273" fill="#2E5CFF"/>
<rect x="38.1172" y="8.86328" width="21.2727" height="3.54545" rx="1.77273" fill="url(#paint1_linear_8137_1345)"/>
<rect x="46.9688" width="21.2727" height="3.54545" rx="1.77273" fill="url(#paint2_linear_8137_1345)"/>
<rect x="38.1172" y="26.5918" width="21.2727" height="3.54545" rx="1.77273" fill="url(#paint3_linear_8137_1345)"/>
<rect x="46.9688" y="35.4551" width="21.2727" height="3.54545" rx="1.77273" fill="url(#paint4_linear_8137_1345)"/>
<defs>
<linearGradient id="paint0_linear_8137_1345" x1="35.4531" y1="20.8308" x2="36.5815" y2="15.1381" gradientUnits="userSpaceOnUse">
<stop stop-color="#02AAB0"/>
<stop offset="1" stop-color="#00CDAC"/>
</linearGradient>
<linearGradient id="paint1_linear_8137_1345" x1="38.1172" y1="11.9656" x2="39.1578" y2="6.23833" gradientUnits="userSpaceOnUse">
<stop stop-color="#02AAB0"/>
<stop offset="1" stop-color="#00CDAC"/>
</linearGradient>
<linearGradient id="paint2_linear_8137_1345" x1="46.9688" y1="3.10227" x2="48.0094" y2="-2.62495" gradientUnits="userSpaceOnUse">
<stop stop-color="#02AAB0"/>
<stop offset="1" stop-color="#00CDAC"/>
</linearGradient>
<linearGradient id="paint3_linear_8137_1345" x1="38.1172" y1="29.6941" x2="39.1578" y2="23.9668" gradientUnits="userSpaceOnUse">
<stop stop-color="#02AAB0"/>
<stop offset="1" stop-color="#00CDAC"/>
</linearGradient>
<linearGradient id="paint4_linear_8137_1345" x1="46.9688" y1="38.5574" x2="48.0094" y2="32.8301" gradientUnits="userSpaceOnUse">
<stop stop-color="#02AAB0"/>
<stop offset="1" stop-color="#00CDAC"/>
</linearGradient>
</defs>
</svg>
